<svg xmlns="http://www.w3.org/2000/svg" xmlns:xlink="http://www.w3.org/1999/xlink" width="512" height="512"><defs><linearGradient xlink:href="#a" id="f" x1=".5" x2=".6" y1="-.7" y2=".8" gradientTransform="matrix(232 0 0 232 111.1 160)" gradientUnits="userSpaceOnUse"/><linearGradient id="a"><stop offset="0" style="stop-color:#1972e7"/><stop offset="1" style="stop-color:#1969d5"/></linearGradient><linearGradient xlink:href="#b" id="e" x1="101.7" x2="101.6" y1="33.7" y2="135.5" gradientTransform="scale(4)" gradientUnits="userSpaceOnUse"/><linearGradient id="b" x2="1" gradientTransform="matrix(61 0 0 61 29.4 42.3)" gradientUnits="userSpaceOnUse"><stop offset="0" style="stop-color:#afccfb"/><stop offset="1" style="stop-color:#8bb5f8"/></linearGradient><linearGradient xlink:href="#c" id="g" x1="0" x2="1.8" y1="-.5" y2=".5" gradientTransform="matrix(95 164 -164 95 97.6 173.6)" gradientUnits="userSpaceOnUse"/><linearGradient id="c" x2="1" gradientTransform="matrix(25 44 -44 25 25.8 46)" gradientUnits="userSpaceOnUse"><stop offset="0" style="stop-color:#659cf6"/><stop offset="1" style="stop-color:#4285f4"/></linearGradient><linearGradient xlink:href="#d" id="h" x1="67.5" x2="67.7" y1="40.3" y2="95.3" gradientTransform="scale(4)" gradientUnits="userSpaceOnUse"/><linearGradient id="d"><stop offset="0" style="stop-color:#3680f0"/><stop offset="1" style="stop-color:#2678ec"/></linearGradient></defs><path d="m256 256 110.8 64L256 512a256 256 0 0 0 221.7-384H256z" style="fill:url(#e)"/><path d="M256 0A255.8 255.8 0 0 0 34.3 128l110.8 192L256 256V128h221.7A255.8 255.8 0 0 0 256 0Z" style="fill:url(#f)"/><path d="M0 256a256 256 0 0 0 256 256l110.8-192L256 256l-111 64L34.3 128A254.7 254.7 0 0 0 0 256" style="fill:url(#g)"/><path fill="#fff" d="M384 256a128 128 0 1 1-256 0 128 128 0 0 1 256 0"/><path d="M360 256a104 104 0 1 1-208 0 104 104 0 0 1 208 0" style="fill:url(#h)"/></svg>