<svg xmlns="http://www.w3.org/2000/svg" viewBox="0 0 100 100"><path fill="#198acd" d="M25 25h50v50H25z"/><path fill="#198acd" d="M12.5 12.5h25v25h-25z"/><path fill="#198acd" d="M6.25 6.25h12.5v12.5H6.25z"/><path fill="#198acd" d="M3.125 3.125h6.25v6.25h-6.25z"/><path fill="#198acd" d="M1.5625 1.5625h3.125v3.125h-3.125zM7.8125 1.5625h3.125v3.125h-3.125zM1.5625 7.8125h3.125v3.125h-3.125zM7.8125 7.8125h3.125v3.125h-3.125zM15.625 3.125h6.25v6.25h-6.25z"/><path fill="#198acd" d="M14.0625 1.5625h3.125v3.125h-3.125zM20.3125 1.5625h3.125v3.125h-3.125zM14.0625 7.8125h3.125v3.125h-3.125zM20.3125 7.8125h3.125v3.125h-3.125zM3.125 15.625h6.25v6.25h-6.25z"/><path fill="#198acd" d="M1.5625 14.0625h3.125v3.125h-3.125zM7.8125 14.0625h3.125v3.125h-3.125zM1.5625 20.3125h3.125v3.125h-3.125zM7.8125 20.3125h3.125v3.125h-3.125zM15.625 15.625h6.25v6.25h-6.25z"/><path fill="#198acd" d="M14.0625 14.0625h3.125v3.125h-3.125zM20.3125 14.0625h3.125v3.125h-3.125zM14.0625 20.3125h3.125v3.125h-3.125zM20.3125 20.3125h3.125v3.125h-3.125zM31.25 6.25h12.5v12.5h-12.5z"/><path fill="#198acd" d="M28.125 3.125h6.25v6.25h-6.25z"/><path fill="#198acd" d="M26.5625 1.5625h3.125v3.125h-3.125zM32.8125 1.5625h3.125v3.125h-3.125zM26.5625 7.8125h3.125v3.125h-3.125zM32.8125 7.8125h3.125v3.125h-3.125zM40.625 3.125h6.25v6.25h-6.25z"/><path fill="#198acd" d="M39.0625 1.5625h3.125v3.125h-3.125zM45.3125 1.5625h3.125v3.125h-3.125zM39.0625 7.8125h3.125v3.125h-3.125zM45.3125 7.8125h3.125v3.125h-3.125zM28.125 15.625h6.25v6.25h-6.25z"/><path fill="#198acd" d="M26.5625 14.0625h3.125v3.125h-3.125zM32.8125 14.0625h3.125v3.125h-3.125zM26.5625 20.3125h3.125v3.125h-3.125zM32.8125 20.3125h3.125v3.125h-3.125zM40.625 15.625h6.25v6.25h-6.25z"/><path fill="#198acd" d="M39.0625 14.0625h3.125v3.125h-3.125zM45.3125 14.0625h3.125v3.125h-3.125zM39.0625 20.3125h3.125v3.125h-3.125zM45.3125 20.3125h3.125v3.125h-3.125zM6.25 31.25h12.5v12.5H6.25z"/><path fill="#198acd" d="M3.125 28.125h6.25v6.25h-6.25z"/><path fill="#198acd" d="M1.5625 26.5625h3.125v3.125h-3.125zM7.8125 26.5625h3.125v3.125h-3.125zM1.5625 32.8125h3.125v3.125h-3.125zM7.8125 32.8125h3.125v3.125h-3.125zM15.625 28.125h6.25v6.25h-6.25z"/><path fill="#198acd" d="M14.0625 26.5625h3.125v3.125h-3.125zM20.3125 26.5625h3.125v3.125h-3.125zM14.0625 32.8125h3.125v3.125h-3.125zM20.3125 32.8125h3.125v3.125h-3.125zM3.125 40.625h6.25v6.25h-6.25z"/><path fill="#198acd" d="M1.5625 39.0625h3.125v3.125h-3.125zM7.8125 39.0625h3.125v3.125h-3.125zM1.5625 45.3125h3.125v3.125h-3.125zM7.8125 45.3125h3.125v3.125h-3.125zM15.625 40.625h6.25v6.25h-6.25z"/><path fill="#198acd" d="M14.0625 39.0625h3.125v3.125h-3.125zM20.3125 39.0625h3.125v3.125h-3.125zM14.0625 45.3125h3.125v3.125h-3.125zM20.3125 45.3125h3.125v3.125h-3.125zM31.25 31.25h12.5v12.5h-12.5z"/><path fill="#198acd" d="M28.125 28.125h6.25v6.25h-6.25z"/><path fill="#198acd" d="M26.5625 26.5625h3.125v3.125h-3.125zM32.8125 26.5625h3.125v3.125h-3.125zM26.5625 32.8125h3.125v3.125h-3.125zM32.8125 32.8125h3.125v3.125h-3.125zM40.625 28.125h6.25v6.25h-6.25z"/><path fill="#198acd" d="M39.0625 26.5625h3.125v3.125h-3.125zM45.3125 26.5625h3.125v3.125h-3.125zM39.0625 32.8125h3.125v3.125h-3.125zM45.3125 32.8125h3.125v3.125h-3.125zM28.125 40.625h6.25v6.25h-6.25z"/><path fill="#198acd" d="M26.5625 39.0625h3.125v3.125h-3.125zM32.8125 39.0625h3.125v3.125h-3.125zM26.5625 45.3125h3.125v3.125h-3.125zM32.8125 45.3125h3.125v3.125h-3.125zM40.625 40.625h6.25v6.25h-6.25z"/><path fill="#198acd" d="M39.0625 39.0625h3.125v3.125h-3.125zM45.3125 39.0625h3.125v3.125h-3.125zM39.0625 45.3125h3.125v3.125h-3.125zM45.3125 45.3125h3.125v3.125h-3.125zM62.5 12.5h25v25h-25z"/><path fill="#198acd" d="M56.25 6.25h12.5v12.5h-12.5z"/><path fill="#198acd" d="M53.125 3.125h6.25v6.25h-6.25z"/><path fill="#198acd" d="M51.5625 1.5625h3.125v3.125h-3.125zM57.8125 1.5625h3.125v3.125h-3.125zM51.5625 7.8125h3.125v3.125h-3.125zM57.8125 7.8125h3.125v3.125h-3.125zM65.625 3.125h6.25v6.25h-6.25z"/><path fill="#198acd" d="M64.0625 1.5625h3.125v3.125h-3.125zM70.3125 1.5625h3.125v3.125h-3.125zM64.0625 7.8125h3.125v3.125h-3.125zM70.3125 7.8125h3.125v3.125h-3.125zM53.125 15.625h6.25v6.25h-6.25z"/><path fill="#198acd" d="M51.5625 14.0625h3.125v3.125h-3.125zM57.8125 14.0625h3.125v3.125h-3.125zM51.5625 20.3125h3.125v3.125h-3.125zM57.8125 20.3125h3.125v3.125h-3.125zM65.625 15.625h6.25v6.25h-6.25z"/><path fill="#198acd" d="M64.0625 14.0625h3.125v3.125h-3.125zM70.3125 14.0625h3.125v3.125h-3.125zM64.0625 20.3125h3.125v3.125h-3.125zM70.3125 20.3125h3.125v3.125h-3.125zM81.25 6.25h12.5v12.5h-12.5z"/><path fill="#198acd" d="M78.125 3.125h6.25v6.25h-6.25z"/><path fill="#198acd" d="M76.5625 1.5625h3.125v3.125h-3.125zM82.8125 1.5625h3.125v3.125h-3.125zM76.5625 7.8125h3.125v3.125h-3.125zM82.8125 7.8125h3.125v3.125h-3.125zM90.625 3.125h6.25v6.25h-6.25z"/><path fill="#198acd" d="M89.0625 1.5625h3.125v3.125h-3.125zM95.3125 1.5625h3.125v3.125h-3.125zM89.0625 7.8125h3.125v3.125h-3.125zM95.3125 7.8125h3.125v3.125h-3.125zM78.125 15.625h6.25v6.25h-6.25z"/><path fill="#198acd" d="M76.5625 14.0625h3.125v3.125h-3.125zM82.8125 14.0625h3.125v3.125h-3.125zM76.5625 20.3125h3.125v3.125h-3.125zM82.8125 20.3125h3.125v3.125h-3.125zM90.625 15.625h6.25v6.25h-6.25z"/><path fill="#198acd" d="M89.0625 14.0625h3.125v3.125h-3.125zM95.3125 14.0625h3.125v3.125h-3.125zM89.0625 20.3125h3.125v3.125h-3.125zM95.3125 20.3125h3.125v3.125h-3.125zM56.25 31.25h12.5v12.5h-12.5z"/><path fill="#198acd" d="M53.125 28.125h6.25v6.25h-6.25z"/><path fill="#198acd" d="M51.5625 26.5625h3.125v3.125h-3.125zM57.8125 26.5625h3.125v3.125h-3.125zM51.5625 32.8125h3.125v3.125h-3.125zM57.8125 32.8125h3.125v3.125h-3.125zM65.625 28.125h6.25v6.25h-6.25z"/><path fill="#198acd" d="M64.0625 26.5625h3.125v3.125h-3.125zM70.3125 26.5625h3.125v3.125h-3.125zM64.0625 32.8125h3.125v3.125h-3.125zM70.3125 32.8125h3.125v3.125h-3.125zM53.125 40.625h6.25v6.25h-6.25z"/><path fill="#198acd" d="M51.5625 39.0625h3.125v3.125h-3.125zM57.8125 39.0625h3.125v3.125h-3.125zM51.5625 45.3125h3.125v3.125h-3.125zM57.8125 45.3125h3.125v3.125h-3.125zM65.625 40.625h6.25v6.25h-6.25z"/><path fill="#198acd" d="M64.0625 39.0625h3.125v3.125h-3.125zM70.3125 39.0625h3.125v3.125h-3.125zM64.0625 45.3125h3.125v3.125h-3.125zM70.3125 45.3125h3.125v3.125h-3.125zM81.25 31.25h12.5v12.5h-12.5z"/><path fill="#198acd" d="M78.125 28.125h6.25v6.25h-6.25z"/><path fill="#198acd" d="M76.5625 26.5625h3.125v3.125h-3.125zM82.8125 26.5625h3.125v3.125h-3.125zM76.5625 32.8125h3.125v3.125h-3.125zM82.8125 32.8125h3.125v3.125h-3.125zM90.625 28.125h6.25v6.25h-6.25z"/><path fill="#198acd" d="M89.0625 26.5625h3.125v3.125h-3.125zM95.3125 26.5625h3.125v3.125h-3.125zM89.0625 32.8125h3.125v3.125h-3.125zM95.3125 32.8125h3.125v3.125h-3.125zM78.125 40.625h6.25v6.25h-6.25z"/><path fill="#198acd" d="M76.5625 39.0625h3.125v3.125h-3.125zM82.8125 39.0625h3.125v3.125h-3.125zM76.5625 45.3125h3.125v3.125h-3.125zM82.8125 45.3125h3.125v3.125h-3.125zM90.625 40.625h6.25v6.25h-6.25z"/><path fill="#198acd" d="M89.0625 39.0625h3.125v3.125h-3.125zM95.3125 39.0625h3.125v3.125h-3.125zM89.0625 45.3125h3.125v3.125h-3.125zM95.3125 45.3125h3.125v3.125h-3.125zM12.5 62.5h25v25h-25z"/><path fill="#198acd" d="M6.25 56.25h12.5v12.5H6.25z"/><path fill="#198acd" d="M3.125 53.125h6.25v6.25h-6.25z"/><path fill="#198acd" d="M1.5625 51.5625h3.125v3.125h-3.125zM7.8125 51.5625h3.125v3.125h-3.125zM1.5625 57.8125h3.125v3.125h-3.125zM7.8125 57.8125h3.125v3.125h-3.125zM15.625 53.125h6.25v6.25h-6.25z"/><path fill="#198acd" d="M14.0625 51.5625h3.125v3.125h-3.125zM20.3125 51.5625h3.125v3.125h-3.125zM14.0625 57.8125h3.125v3.125h-3.125zM20.3125 57.8125h3.125v3.125h-3.125zM3.125 65.625h6.25v6.25h-6.25z"/><path fill="#198acd" d="M1.5625 64.0625h3.125v3.125h-3.125zM7.8125 64.0625h3.125v3.125h-3.125zM1.5625 70.3125h3.125v3.125h-3.125zM7.8125 70.3125h3.125v3.125h-3.125zM15.625 65.625h6.25v6.25h-6.25z"/><path fill="#198acd" d="M14.0625 64.0625h3.125v3.125h-3.125zM20.3125 64.0625h3.125v3.125h-3.125zM14.0625 70.3125h3.125v3.125h-3.125zM20.3125 70.3125h3.125v3.125h-3.125zM31.25 56.25h12.5v12.5h-12.5z"/><path fill="#198acd" d="M28.125 53.125h6.25v6.25h-6.25z"/><path fill="#198acd" d="M26.5625 51.5625h3.125v3.125h-3.125zM32.8125 51.5625h3.125v3.125h-3.125zM26.5625 57.8125h3.125v3.125h-3.125zM32.8125 57.8125h3.125v3.125h-3.125zM40.625 53.125h6.25v6.25h-6.25z"/><path fill="#198acd" d="M39.0625 51.5625h3.125v3.125h-3.125zM45.3125 51.5625h3.125v3.125h-3.125zM39.0625 57.8125h3.125v3.125h-3.125zM45.3125 57.8125h3.125v3.125h-3.125zM28.125 65.625h6.25v6.25h-6.25z"/><path fill="#198acd" d="M26.5625 64.0625h3.125v3.125h-3.125zM32.8125 64.0625h3.125v3.125h-3.125zM26.5625 70.3125h3.125v3.125h-3.125zM32.8125 70.3125h3.125v3.125h-3.125zM40.625 65.625h6.25v6.25h-6.25z"/><path fill="#198acd" d="M39.0625 64.0625h3.125v3.125h-3.125zM45.3125 64.0625h3.125v3.125h-3.125zM39.0625 70.3125h3.125v3.125h-3.125zM45.3125 70.3125h3.125v3.125h-3.125zM6.25 81.25h12.5v12.5H6.25z"/><path fill="#198acd" d="M3.125 78.125h6.25v6.25h-6.25z"/><path fill="#198acd" d="M1.5625 76.5625h3.125v3.125h-3.125zM7.8125 76.5625h3.125v3.125h-3.125zM1.5625 82.8125h3.125v3.125h-3.125zM7.8125 82.8125h3.125v3.125h-3.125zM15.625 78.125h6.25v6.25h-6.25z"/><path fill="#198acd" d="M14.0625 76.5625h3.125v3.125h-3.125zM20.3125 76.5625h3.125v3.125h-3.125zM14.0625 82.8125h3.125v3.125h-3.125zM20.3125 82.8125h3.125v3.125h-3.125zM3.125 90.625h6.25v6.25h-6.25z"/><path fill="#198acd" d="M1.5625 89.0625h3.125v3.125h-3.125zM7.8125 89.0625h3.125v3.125h-3.125zM1.5625 95.3125h3.125v3.125h-3.125zM7.8125 95.3125h3.125v3.125h-3.125zM15.625 90.625h6.25v6.25h-6.25z"/><path fill="#198acd" d="M14.0625 89.0625h3.125v3.125h-3.125zM20.3125 89.0625h3.125v3.125h-3.125zM14.0625 95.3125h3.125v3.125h-3.125zM20.3125 95.3125h3.125v3.125h-3.125zM31.25 81.25h12.5v12.5h-12.5z"/><path fill="#198acd" d="M28.125 78.125h6.25v6.25h-6.25z"/><path fill="#198acd" d="M26.5625 76.5625h3.125v3.125h-3.125zM32.8125 76.5625h3.125v3.125h-3.125zM26.5625 82.8125h3.125v3.125h-3.125zM32.8125 82.8125h3.125v3.125h-3.125zM40.625 78.125h6.25v6.25h-6.25z"/><path fill="#198acd" d="M39.0625 76.5625h3.125v3.125h-3.125zM45.3125 76.5625h3.125v3.125h-3.125zM39.0625 82.8125h3.125v3.125h-3.125zM45.3125 82.8125h3.125v3.125h-3.125zM28.125 90.625h6.25v6.25h-6.25z"/><path fill="#198acd" d="M26.5625 89.0625h3.125v3.125h-3.125zM32.8125 89.0625h3.125v3.125h-3.125zM26.5625 95.3125h3.125v3.125h-3.125zM32.8125 95.3125h3.125v3.125h-3.125zM40.625 90.625h6.25v6.25h-6.25z"/><path fill="#198acd" d="M39.0625 89.0625h3.125v3.125h-3.125zM45.3125 89.0625h3.125v3.125h-3.125zM39.0625 95.3125h3.125v3.125h-3.125zM45.3125 95.3125h3.125v3.125h-3.125zM62.5 62.5h25v25h-25z"/><path fill="#198acd" d="M56.25 56.25h12.5v12.5h-12.5z"/><path fill="#198acd" d="M53.125 53.125h6.25v6.25h-6.25z"/><path fill="#198acd" d="M51.5625 51.5625h3.125v3.125h-3.125zM57.8125 51.5625h3.125v3.125h-3.125zM51.5625 57.8125h3.125v3.125h-3.125zM57.8125 57.8125h3.125v3.125h-3.125zM65.625 53.125h6.25v6.25h-6.25z"/><path fill="#198acd" d="M64.0625 51.5625h3.125v3.125h-3.125zM70.3125 51.5625h3.125v3.125h-3.125zM64.0625 57.8125h3.125v3.125h-3.125zM70.3125 57.8125h3.125v3.125h-3.125zM53.125 65.625h6.25v6.25h-6.25z"/><path fill="#198acd" d="M51.5625 64.0625h3.125v3.125h-3.125zM57.8125 64.0625h3.125v3.125h-3.125zM51.5625 70.3125h3.125v3.125h-3.125zM57.8125 70.3125h3.125v3.125h-3.125zM65.625 65.625h6.25v6.25h-6.25z"/><path fill="#198acd" d="M64.0625 64.0625h3.125v3.125h-3.125zM70.3125 64.0625h3.125v3.125h-3.125zM64.0625 70.3125h3.125v3.125h-3.125zM70.3125 70.3125h3.125v3.125h-3.125zM81.25 56.25h12.5v12.5h-12.5z"/><path fill="#198acd" d="M78.125 53.125h6.25v6.25h-6.25z"/><path fill="#198acd" d="M76.5625 51.5625h3.125v3.125h-3.125zM82.8125 51.5625h3.125v3.125h-3.125zM76.5625 57.8125h3.125v3.125h-3.125zM82.8125 57.8125h3.125v3.125h-3.125zM90.625 53.125h6.25v6.25h-6.25z"/><path fill="#198acd" d="M89.0625 51.5625h3.125v3.125h-3.125zM95.3125 51.5625h3.125v3.125h-3.125zM89.0625 57.8125h3.125v3.125h-3.125zM95.3125 57.8125h3.125v3.125h-3.125zM78.125 65.625h6.25v6.25h-6.25z"/><path fill="#198acd" d="M76.5625 64.0625h3.125v3.125h-3.125zM82.8125 64.0625h3.125v3.125h-3.125zM76.5625 70.3125h3.125v3.125h-3.125zM82.8125 70.3125h3.125v3.125h-3.125zM90.625 65.625h6.25v6.25h-6.25z"/><path fill="#198acd" d="M89.0625 64.0625h3.125v3.125h-3.125zM95.3125 64.0625h3.125v3.125h-3.125zM89.0625 70.3125h3.125v3.125h-3.125zM95.3125 70.3125h3.125v3.125h-3.125zM56.25 81.25h12.5v12.5h-12.5z"/><path fill="#198acd" d="M53.125 78.125h6.25v6.25h-6.25z"/><path fill="#198acd" d="M51.5625 76.5625h3.125v3.125h-3.125zM57.8125 76.5625h3.125v3.125h-3.125zM51.5625 82.8125h3.125v3.125h-3.125zM57.8125 82.8125h3.125v3.125h-3.125zM65.625 78.125h6.25v6.25h-6.25z"/><path fill="#198acd" d="M64.0625 76.5625h3.125v3.125h-3.125zM70.3125 76.5625h3.125v3.125h-3.125zM64.0625 82.8125h3.125v3.125h-3.125zM70.3125 82.8125h3.125v3.125h-3.125zM53.125 90.625h6.25v6.25h-6.25z"/><path fill="#198acd" d="M51.5625 89.0625h3.125v3.125h-3.125zM57.8125 89.0625h3.125v3.125h-3.125zM51.5625 95.3125h3.125v3.125h-3.125zM57.8125 95.3125h3.125v3.125h-3.125zM65.625 90.625h6.25v6.25h-6.25z"/><path fill="#198acd" d="M64.0625 89.0625h3.125v3.125h-3.125zM70.3125 89.0625h3.125v3.125h-3.125zM64.0625 95.3125h3.125v3.125h-3.125zM70.3125 95.3125h3.125v3.125h-3.125zM81.25 81.25h12.5v12.5h-12.5z"/><path fill="#198acd" d="M78.125 78.125h6.25v6.25h-6.25z"/><path fill="#198acd" d="M76.5625 76.5625h3.125v3.125h-3.125zM82.8125 76.5625h3.125v3.125h-3.125zM76.5625 82.8125h3.125v3.125h-3.125zM82.8125 82.8125h3.125v3.125h-3.125zM90.625 78.125h6.25v6.25h-6.25z"/><path fill="#198acd" d="M89.0625 76.5625h3.125v3.125h-3.125zM95.3125 76.5625h3.125v3.125h-3.125zM89.0625 82.8125h3.125v3.125h-3.125zM95.3125 82.8125h3.125v3.125h-3.125zM78.125 90.625h6.25v6.25h-6.25z"/><path fill="#198acd" d="M76.5625 89.0625h3.125v3.125h-3.125zM82.8125 89.0625h3.125v3.125h-3.125zM76.5625 95.3125h3.125v3.125h-3.125zM82.8125 95.3125h3.125v3.125h-3.125zM90.625 90.625h6.25v6.25h-6.25z"/><path fill="#198acd" d="M89.0625 89.0625h3.125v3.125h-3.125zM95.3125 89.0625h3.125v3.125h-3.125zM89.0625 95.3125h3.125v3.125h-3.125zM95.3125 95.3125h3.125v3.125h-3.125z"/></svg>